<?xml version="1.0" encoding="UTF-8"?>
<svg width="208px" height="208px" viewBox="0 0 208 208" version="1.1" xmlns="http://www.w3.org/2000/svg" xmlns:xlink="http://www.w3.org/1999/xlink">
    <!-- Generator: Sketch 52.1 (67048) - http://www.bohemiancoding.com/sketch -->
    <title>StepIcons/icPhotojournalNoBk</title>
    <desc>Created with Sketch.</desc>
    <g id="Symbols" stroke="none" stroke-width="1" fill="none" fill-rule="evenodd">
        <g id="StepIcons/icPhotojournalNoBk">
            <path d="M106.634382,38.9970622 C106.604618,39.1797176 106.577832,39.3638521 106.577832,39.5553815 L106.577832,101.396457 C106.577832,103.512894 104.851576,105.228524 102.722775,105.228524 C100.59323,105.228524 98.867718,103.512894 98.867718,101.396457 L98.867718,39.5553815 C98.867718,39.3638521 98.8409313,39.1797176 98.8111682,38.9970622 C96.4747701,39.1139025 94.1711114,39.3498017 91.8949834,39.6692639 L91.8949834,101.396457 C91.8949834,103.512894 90.1687275,105.228524 88.0399265,105.228524 C85.9103815,105.228524 84.1841256,103.512894 84.1841256,101.396457 L84.1841256,47.1485244 C84.1841256,45.2354487 82.6237986,43.6839866 80.6981303,43.6839866 C78.7724621,43.6839866 77.2121351,45.2354487 77.2121351,47.1485244 L77.2939834,130.046003 C77.2939834,140.705835 83.9266754,149.820121 93.3117038,153.550877 C95.5208649,155.695415 96.5528981,158.366474 97.0343152,160.546508 L95.393628,191.044793 C97.8066659,191.272558 100.249467,191.399751 102.722775,191.399751 C105.518268,191.399751 108.276557,191.241499 110.99541,190.951617 L109.340585,160.193029 C109.908315,157.856222 111.11595,155.039482 113.687476,152.91639 C122.287505,148.851382 128.233415,140.140121 128.233415,130.046003 L128.233415,47.1485244 C128.233415,45.2354487 126.672344,43.6839866 124.746675,43.6839866 C122.821751,43.6839866 121.26068,45.2354487 121.26068,47.1485244 L121.26068,101.396457 C121.26068,103.512894 119.534424,105.228524 117.405623,105.228524 C115.276078,105.228524 113.550566,103.512894 113.550566,101.396457 L113.550566,39.6692639 C111.273694,39.3498017 108.97078,39.1139025 106.634382,38.9970622" id="Fill-4" fill="#597DC9"></path>
            <path d="M80.6982791,43.6838387 C78.7726109,43.6838387 77.2122839,45.2353008 77.2122839,47.1483765 L77.2122839,58.8664269 L84.1842744,59.8307294 L84.1842744,47.1483765 C84.1842744,45.2353008 82.6239474,43.6838387 80.6982791,43.6838387" id="Fill-7" fill="#466DAC"></path>
            <path d="M95.3812019,36.0904739 C93.4555336,36.0904739 91.8952066,37.6419361 91.8952066,39.5550118 L91.8952066,60.8976 L98.8671972,61.861163 L98.8671972,39.5550118 C98.8671972,37.6419361 97.3068701,36.0904739 95.3812019,36.0904739" id="Fill-9" fill="#466DAC"></path>
            <path d="M110.064199,36.0904739 C108.138531,36.0904739 106.578204,37.6419361 106.578204,39.5550118 L106.578204,62.927516 L113.550194,63.8918185 L113.550194,39.5550118 C113.550194,37.6419361 111.989867,36.0904739 110.064199,36.0904739" id="Fill-11" fill="#466DAC"></path>
            <path d="M124.747271,43.6838387 C122.821602,43.6838387 121.261275,45.2353008 121.261275,47.1483765 L121.261275,64.9583933 L128.233266,65.9226958 L128.233266,47.1483765 C128.233266,45.2353008 126.672939,43.6838387 124.747271,43.6838387" id="Fill-13" fill="#466DAC"></path>
            <path d="M182.441497,36.4904672 C182.047136,33.4178622 179.220392,31.2452235 176.128757,31.6371563 L160.643795,33.6019966 C160.721179,33.5576269 160.797819,33.5117782 160.875203,33.4681479 C161.706336,32.9053916 162.524819,32.3515092 163.31726,31.8153748 C164.068776,31.2215597 164.795738,30.6477109 165.484753,30.103442 C166.18344,29.5599126 166.751914,28.963879 167.327828,28.4499294 C167.886629,27.9234084 168.426084,27.4545681 168.831606,26.9872067 C169.254985,26.5294588 169.624791,26.1308706 169.928373,25.8025345 C170.537772,25.1392067 170.885999,24.7605849 170.885999,24.7605849 C171.097317,24.5269042 171.30789,24.2503328 171.475307,23.9693244 C172.830269,21.6924168 172.072056,18.7544 169.781046,17.4070387 C167.490037,16.0604168 164.533824,16.813963 163.178118,19.0908706 L163.048648,19.3082824 C163.048648,19.3082824 162.838819,19.6617613 162.470501,20.2807193 C162.285971,20.5927866 162.06126,20.9714084 161.804554,21.4069714 C161.561985,21.8588034 161.217478,22.3017613 160.864786,22.8134924 C160.497212,23.3089546 160.145264,23.9020303 159.684682,24.4403832 C159.229307,24.9913076 158.749378,25.5725513 158.252336,26.1730218 C157.709904,26.7372571 157.149615,27.3199798 156.580397,27.912316 C155.965791,28.4506689 155.357136,29.0363496 154.709046,29.572484 C154.037146,30.0686857 153.400961,30.6469714 152.697065,31.0869714 C152.350326,31.3213916 152.006563,31.5535933 151.667264,31.7835765 C151.323501,32.0076437 150.967833,32.1984336 150.62407,32.4054924 C149.941753,32.831442 149.242321,33.1546017 148.584558,33.4962487 C147.917866,33.8024 147.278705,34.0974588 146.677492,34.3252235 C146.076279,34.5611227 145.518222,34.7622655 145.018947,34.9138622 C144.519672,35.0839462 144.0829,35.1845176 143.722767,35.2865681 C143.377516,35.3656941 143.105928,35.4278118 142.921397,35.469963 C142.763653,35.5084168 142.619302,35.5232067 142.626743,35.5239462 C141.864809,35.6082487 141.232345,36.2042824 141.137103,36.9933244 C141.136359,37.0014588 141.137847,37.0095933 141.137103,37.0177277 C141.137103,37.0192067 141.136359,37.0199462 141.136359,37.0214252 C141.131895,37.0591395 141.136359,37.0946353 141.134871,37.1316101 C141.131895,37.2018622 141.126686,37.2721143 141.132639,37.3408874 C141.193653,38.1277109 141.80826,38.7866017 142.626743,38.8775597 C142.619302,38.8782992 142.763653,38.8930891 142.921397,38.9315429 C143.105928,38.9736941 143.377516,39.0358118 143.722767,39.1149378 C144.0829,39.2169882 144.519672,39.3168202 145.018947,39.4876437 C145.518222,39.6392403 146.076279,39.8403832 146.677492,40.0762824 C147.278705,40.3040471 147.917866,40.5991059 148.584558,40.9052571 C149.242321,41.2469042 149.941753,41.5700639 150.62407,41.9960134 C150.967833,42.2030723 151.323501,42.3938622 151.667264,42.6179294 C152.006563,42.8479126 152.350326,43.0801143 152.697065,43.3145345 C153.400961,43.7545345 154.037146,44.3328202 154.709046,44.8290218 C155.357136,45.3644168 155.965791,45.9500975 156.580397,46.4891899 C157.149615,47.0815261 157.709904,47.6642487 158.252336,48.2277445 C158.749378,48.8289546 159.229307,49.4101983 159.684682,49.9611227 C160.145264,50.4994756 160.497212,51.0925513 160.864786,51.5880134 C161.217478,52.0997445 161.561985,52.5427025 161.804554,52.9945345 C162.06126,53.429358 162.285971,53.8087193 162.470501,54.1207866 C162.838819,54.7397445 163.048648,55.0932235 163.048648,55.0932235 L163.190767,55.3328202 C163.353719,55.6027361 163.545691,55.8600807 163.767426,56.1018958 C165.562881,58.0549042 168.611359,58.1924504 170.577208,56.4080471 C172.542312,54.6243832 172.68071,51.5946689 170.885999,49.640921 C170.885999,49.640921 170.537772,49.2622992 169.928373,48.5989714 C169.624791,48.2706353 169.254985,47.8720471 168.831606,47.4142992 C168.426084,46.9469378 167.886629,46.477358 167.327828,45.950837 C166.751914,45.4376269 166.18344,44.8415933 165.484753,44.2973244 C164.795738,43.7530555 164.068776,43.1792067 163.31726,42.5853916 C162.524819,42.0499966 161.706336,41.4961143 160.875203,40.933358 C160.797819,40.8897277 160.721179,40.843879 160.643795,40.7995092 L176.128757,42.7643496 C176.584876,42.8190723 177.082663,42.8242487 177.558127,42.7643496 C180.649762,42.3716773 182.835857,39.5630723 182.441497,36.4904672" id="Fill-15" fill="#4C70AE"></path>
            <path d="M54.6373953,28.0620639 L129.527883,17.8866017 C140.205372,16.4357109 150.04503,23.8624672 151.504907,34.4742319 C152.96404,45.0867361 145.49203,54.8650891 134.813798,56.3159798 C133.04885,56.556316 131.212471,56.5356101 129.527883,56.3159798 L54.6373953,46.1405176 C49.6141393,45.457963 46.0991251,40.8575597 46.7859071,35.8652235 C47.3566133,31.7173916 50.6580777,28.6048538 54.6373953,28.0620639" id="Fill-18" fill="#5EC2ED"></path>
            <path d="M54.6373209,46.1407395 L129.527809,56.3162017 C131.212397,56.5358319 133.04952,56.5557983 134.813724,56.3162017 C145.023188,54.9289076 152.295785,45.9277647 151.63951,35.8654454 L46.7858327,35.8654454 C46.0990507,40.8577815 49.6140649,45.4581849 54.6373209,46.1407395" id="Fill-20" fill="#53BDE8"></path>
            <path d="M71.8061265,25.7293244 L71.8061265,35.9439798 C71.8061265,37.7379966 73.2689796,39.1911059 75.0741076,39.1911059 C76.8784915,39.1911059 78.3413445,37.7379966 78.3413445,35.9439798 L78.3413445,24.8411899 L71.8061265,25.7293244 Z" id="Fill-22" fill="#46B6E3"></path>
            <path d="M100.604837,33.2843832 C98.8004536,33.2843832 97.3376005,34.7382319 97.3376005,36.5322487 L97.3376005,51.9426017 L103.872818,52.8307361 L103.872818,36.5322487 C103.872818,34.7382319 102.409965,33.2843832 100.604837,33.2843832" id="Fill-24" fill="#46B6E3"></path>
            <path d="M122.86461,18.7919664 L122.86461,37.0449412 C122.86461,38.838958 124.327463,40.2928067 126.131847,40.2928067 C127.936975,40.2928067 129.399828,38.838958 129.399828,37.0449412 L129.399828,17.9038319 L122.86461,18.7919664 Z" id="Fill-26" fill="#46B6E3"></path>
        </g>
    </g>
</svg>