<svg width="375" height="153" xmlns="http://www.w3.org/2000/svg" xmlns:xlink="http://www.w3.org/1999/xlink"><defs><linearGradient x1="0%" y1="0%" y2="100%" id="b"><stop stop-color="#17EAD9" offset="0%"/><stop stop-color="#6078EA" offset="100%"/></linearGradient><path d="M375 143.36045V0H0v70.41456C20.82434 68.48588 41.92204 67.5 63.25 67.5c112.4171 0 218.43692 27.38997 311.75007 75.8605z" id="a"/></defs><g fill="none" fill-rule="evenodd"><use fill="url(#b)" xlink:href="#a"/><circle cx="40" cy="40" r="40" fill="#FFF" transform="translate(257 73)"/><g fill="#2C9FC9"><path d="M297.49947 84.38082c-7.51065 0-14.57178 2.925-19.88272 8.23627-5.31104 5.31138-8.23593 12.37295-8.23593 19.88414 0 7.51023 2.92489 14.57126 8.23583 19.8821 5.31104 5.31095 12.37217 8.23585 19.88282 8.23585 7.51128 0 14.57284-2.9249 19.88399-8.23585 5.31083-5.31073 8.23572-12.37177 8.23572-19.8821 0-7.5113-2.92489-14.57287-8.23583-19.88414-5.31104-5.31126-12.3726-8.23627-19.88388-8.23627m0 60.61918c-8.68075 0-16.842-3.3806-22.98049-9.51889C268.3806 129.34272 265 121.18167 265 112.50123c0-8.6813 3.3806-16.84299 9.51898-22.9817C280.65736 83.38083 288.81861 80 297.49947 80c8.6815 0 16.84317 3.38082 22.98166 9.51953C326.6194 95.65803 330 103.81983 330 112.50123c0 8.68055-3.3806 16.8417-9.51887 22.97988C314.34253 141.61939 306.18086 145 297.49947 145"/><path d="M281.68919 99.4625c1.71445-.67829 5.04835-1.01655 9.99941-1.01655 2.42955 0 4.36735.4818 5.79755 1.4431 1.8848-.9613 4.53477-1.4431 7.9501-1.4431 5.83381 0 8.75294 2.71162 8.75294 8.13767v9.48273h-5.00134v-9.48274c0-2.7139-1.24876-4.07028-3.7516-4.07028-1.61836 0-3.28156.34096-4.99851 1.01853v17.29678h-4.99916v-14.24502c0-2.71391-1.2555-4.0703-3.74998-4.0703-.85266 0-1.68785.03594-2.50186.10376-.81824.06792-1.65126.17002-2.50045.30607v24.50928h-4.9971V99.46251z"/></g></g></svg>