<?xml version="1.0" encoding="UTF-8"?>
<svg width="129px" height="23px" viewBox="0 0 129 23" version="1.1" xmlns="http://www.w3.org/2000/svg" xmlns:xlink="http://www.w3.org/1999/xlink">
    <!-- Generator: Sketch 52.1 (67048) - http://www.bohemiancoding.com/sketch -->
    <title>icLogo</title>
    <desc>Created with Sketch.</desc>
    <g id="Mocks" stroke="none" stroke-width="1" fill="none" fill-rule="evenodd">
        <g id="Forgot-password-02---Input" transform="translate(-123.000000, -39.000000)" fill="#FFFFFF">
            <g id="icLogo" transform="translate(123.000000, 39.000000)">
                <path d="M110.5062,5.0756 C111.4642,4.6526 113.3262,4.4406 116.0892,4.4406 C117.4482,4.4406 118.5272,4.7416 119.3272,5.3416 C120.3792,4.7416 121.8592,4.4406 123.7662,4.4406 C127.0232,4.4406 128.6522,6.1326 128.6522,9.5166 L128.6522,18.3996 L125.8602,18.3996 L125.8602,9.5166 C125.8602,7.8246 125.1622,6.9786 123.7662,6.9786 C122.8632,6.9786 121.9332,7.1906 120.9752,7.6136 L120.9752,18.3996 L118.1832,18.3996 L118.1832,9.5166 C118.1832,7.8246 117.4852,6.9786 116.0892,6.9786 C115.6152,6.9786 115.1492,7.0006 114.6932,7.0426 C114.2372,7.0846 113.7722,7.1486 113.2982,7.2326 L113.2982,18.3996 L110.5062,18.3996 L110.5062,5.0756 Z M96.5482,4.4406 L99.3392,4.4406 L99.3392,13.3236 C99.3392,15.0156 100.2702,15.8616 102.1312,15.8616 C102.6062,15.8616 103.0712,15.8406 103.5272,15.7976 C103.9832,15.7556 104.4482,15.6926 104.9232,15.6076 L104.9232,4.4406 L107.7142,4.4406 L107.7142,17.1306 C106.7842,17.9766 104.9232,18.3996 102.1312,18.3996 C98.4092,18.3996 96.5482,16.7076 96.5482,13.3236 L96.5482,4.4406 Z M86.7772,0.6346 L89.5692,-0.0004 L89.5692,4.4406 L93.7562,4.4406 L93.7562,6.9786 L89.5692,6.9786 L89.5692,13.3236 C89.5692,15.0156 90.2672,15.8616 91.6632,15.8616 C92.3052,15.8616 92.9562,15.7346 93.6172,15.4806 L94.3142,17.7646 C93.6542,18.1876 92.7702,18.3996 91.6632,18.3996 C88.4052,18.3996 86.7772,16.7076 86.7772,13.3236 L86.7772,6.9786 L84.6832,6.9786 L84.6832,4.4406 L86.7772,4.4406 L86.7772,0.6346 Z M71.1862,5.0756 C72.1442,4.6526 74.0062,4.4406 76.7702,4.4406 C80.4922,4.4406 82.3532,6.1326 82.3532,9.5166 L82.3532,18.3996 L79.5612,18.3996 L79.5612,9.5166 C79.5612,7.8246 78.6312,6.9786 76.7702,6.9786 C76.2952,6.9786 75.8292,7.0006 75.3742,7.0426 C74.9182,7.0846 74.4532,7.1486 73.9782,7.2326 L73.9782,18.3996 L71.1862,18.3996 L71.1862,5.0756 Z M66.1612,10.2786 C66.1612,8.0786 65.1842,6.9786 63.2302,6.9786 C61.0902,6.9786 60.0202,8.0786 60.0202,10.2786 L66.1612,10.2786 Z M57.2282,10.7856 C57.2282,6.5556 59.2292,4.4406 63.2302,4.4406 C67.0452,4.4406 68.9532,6.5556 68.9532,10.7856 C68.9532,12.0546 68.7202,12.6896 68.2552,12.6896 L60.0202,12.6896 C60.0202,14.8036 60.9502,15.8616 62.8112,15.8616 C64.6452,15.8616 66.1102,15.6756 67.2082,15.3026 L67.7392,17.6506 C66.7712,18.1496 65.1282,18.3996 62.8112,18.3996 C59.0892,18.3996 57.2282,16.2846 57.2282,12.0546 L57.2282,10.7856 Z M36.2912,5.0756 C37.2492,4.6526 39.1112,4.4406 41.8742,4.4406 C43.2332,4.4406 44.3122,4.7416 45.1132,5.3416 C46.1642,4.7416 47.6442,4.4406 49.5512,4.4406 C52.8082,4.4406 54.4372,6.1326 54.4372,9.5166 L54.4372,18.3996 L51.6452,18.3996 L51.6452,9.5166 C51.6452,7.8246 50.9472,6.9786 49.5512,6.9786 C48.6492,6.9786 47.7182,7.1906 46.7602,7.6136 L46.7602,18.3996 L43.9682,18.3996 L43.9682,9.5166 C43.9682,7.8246 43.2702,6.9786 41.8742,6.9786 C41.4002,6.9786 40.9342,7.0006 40.4782,7.0426 C40.0222,7.0846 39.5572,7.1486 39.0832,7.2326 L39.0832,18.3996 L36.2912,18.3996 L36.2912,5.0756 Z M23.7292,12.0546 C23.7292,14.5926 24.8922,15.8616 27.2182,15.8616 C29.5442,15.8616 30.7082,14.5926 30.7082,12.0546 L30.7082,10.7856 C30.7082,8.2476 29.5442,6.9786 27.2182,6.9786 C24.8922,6.9786 23.7292,8.2476 23.7292,10.7856 L23.7292,12.0546 Z M20.9372,10.7856 C20.9372,6.5556 23.0312,4.4406 27.2182,4.4406 C31.4062,4.4406 33.4992,6.5556 33.4992,10.7856 L33.4992,12.0546 C33.4992,16.2846 31.4062,18.3996 27.2182,18.3996 C23.0312,18.3996 20.9372,16.2846 20.9372,12.0546 L20.9372,10.7856 Z M0.0002,5.0756 C0.9582,4.6526 2.8192,4.4406 5.5832,4.4406 C6.9422,4.4406 8.0212,4.7416 8.8212,5.3416 C9.8732,4.7416 11.3522,4.4406 13.2602,4.4406 C16.5172,4.4406 18.1452,6.1326 18.1452,9.5166 L18.1452,15.4306 L15.3542,15.4306 L15.3542,9.5166 C15.3542,7.8246 14.6562,6.9786 13.2602,6.9786 C12.3572,6.9786 11.4272,7.1906 10.4682,7.6136 L10.4682,18.3996 L7.6772,18.3996 L7.6772,9.5166 C7.6772,7.8246 6.9792,6.9786 5.5832,6.9786 C5.1082,6.9786 4.6432,7.0006 4.1872,7.0426 C3.7312,7.0846 3.2662,7.1486 2.7912,7.2326 L2.7912,22.5186 L0.0002,22.5186 L0.0002,5.0756 Z" id="Fill-1"></path>
            </g>
        </g>
    </g>
</svg>