<?xml version="1.0" encoding="UTF-8"?>
<svg width="80px" height="80px" viewBox="0 0 80 80" version="1.1" xmlns="http://www.w3.org/2000/svg" xmlns:xlink="http://www.w3.org/1999/xlink">
    <!-- Generator: Sketch 52.3 (67297) - http://www.bohemiancoding.com/sketch -->
    <title>icCamera</title>
    <desc>Created with Sketch.</desc>
    <g id="icCamera" stroke="none" stroke-width="1" fill="none" fill-rule="evenodd">
        <path d="M47.1576794,32.712855 C45.7109618,32.0069008 44.0914198,31.6001832 42.3729466,31.6001832 C36.3289771,31.6001832 31.4294351,36.4997252 31.4294351,42.5436947 C31.4294351,44.2621679 31.8367634,45.8810992 32.5421069,47.3284275 L47.1576794,32.712855 Z" id="Fill-6" fill="#53BBEA"></path>
        <path d="M35.6285802,51.1505344 C37.4881221,52.6100763 39.8258321,53.4876336 42.3730076,53.4876336 C48.4169771,53.4876336 53.3171298,48.5880916 53.3171298,42.5441221 C53.3171298,39.9969466 52.4389618,37.658626 50.9800305,35.799084 L35.6285802,51.1505344 Z" id="Fill-7" fill="#53BBEA"></path>
        <path d="M64.1832061,31.119084 L73.3227481,31.119084 L73.3227481,25.3029008 L64.1832061,25.3029008 L64.1832061,31.119084 Z M74.6687023,19.4873282 L67.2916031,19.4873282 L53.689771,33.0891603 C55.8308397,35.6491603 57.1212214,38.9456489 57.1212214,42.5438168 C57.1212214,50.6885496 50.5184733,57.2919084 42.3731298,57.2919084 C38.7749618,57.2919084 35.4784733,56.0015267 32.9184733,53.860458 L21.178626,65.6003053 L74.6687023,65.6003053 C77.3673282,65.6003053 79.5541985,63.4128244 79.5541985,60.7148092 L79.5541985,24.3728244 C79.5541985,21.6748092 77.3673282,19.4873282 74.6687023,19.4873282 Z" id="Fill-4" fill="#597DC9"></path>
        <path d="M27.6252824,42.5438168 C27.6252824,34.3984733 34.2280305,27.7957252 42.373374,27.7957252 C43.3052824,27.7957252 44.2139847,27.889771 45.0976489,28.0552672 L27.8842137,45.2687023 C27.7187176,44.3850382 27.6252824,43.4757252 27.6252824,42.5438168 Z M69.542229,3.61068702 L53.6655878,19.4873282 L10.0771908,19.4873282 C7.37917557,19.4873282 5.19169466,21.6748092 5.19169466,24.3728244 L5.19169466,60.7148092 C5.19169466,62.6745038 6.34894656,64.3606107 8.01429008,65.138626 L0.000244274809,73.1532824 L3.45429008,76.6073282 L72.9962748,7.06534351 L69.542229,3.61068702 Z" id="Fill-1" fill="#597DC9"></path>
    </g>
</svg>