<?xml version="1.0" encoding="utf-8"?>
<!-- Generator: Adobe Illustrator 19.0.0, SVG Export Plug-In . SVG Version: 6.00 Build 0)  -->
<svg version="1.1" id="Capa_1" xmlns="http://www.w3.org/2000/svg" xmlns:xlink="http://www.w3.org/1999/xlink" x="0px" y="0px"
	 viewBox="-435 235 88 92" style="enable-background:new -435 235 88 92;" xml:space="preserve">
<style type="text/css">
	.st0{fill:#E3F4F8;}
	.st1{fill:#F9F9F9;}
	.st2{fill-opacity:0.1;}
	.st3{fill:#FFFFFF;}
	.st4{fill:#277D9D;}
	.st5{fill:#2C9FC9;}
</style>
<title>imgPhotos</title>
<desc>Created with Sketch.</desc>
<circle id="Oval" class="st0" cx="-391" cy="283" r="44"/>
<path id="Mask" class="st1" d="M-426,249.1l56.5-4c1-0.1,1.8,0.7,1.9,1.6l3.9,56.5c0.1,1-0.7,1.8-1.6,1.9l-56.5,4
	c-1,0.1-1.8-0.7-1.9-1.6l-3.9-56.5C-427.7,250-427,249.1-426,249.1z"/>
<path id="Combined-Shape_1_" class="st2" d="M-411.7,246.3l42-2.9c1-0.1,1.8,0.7,1.9,1.6l3.9,56.5c0.1,1-0.7,1.8-1.6,1.9l-1.7,0.1
	l-46.6-3.3c-1-0.1-1.7-0.9-1.6-1.9L-411.7,246.3z"/>
<path id="Stroke-5_2_" class="st3" d="M-414.1,235l56.5,3.9c1,0.1,1.7,0.9,1.6,1.9l-3.9,56.5c-0.1,1-0.9,1.7-1.9,1.6l-56.5-3.9
	c-1-0.1-1.7-0.9-1.6-1.9l3.9-56.5C-415.9,235.7-415,234.9-414.1,235z"/>
<path id="Mask_1_" class="st4" d="M-409.8,240.2l47.3,3.3c0.8,0.1,1.4,0.8,1.4,1.6l-3.3,47.3c-0.1,0.8-0.8,1.4-1.6,1.4l-47.3-3.3
	c-0.8-0.1-1.4-0.8-1.4-1.6l3.3-47.3C-411.3,240.8-410.6,240.1-409.8,240.2z"/>
<path id="Combined-Shape_2_" class="st5" d="M-413.4,270.2c3.1-1.7,7.5-3.3,12.9-2.9c11.1,0.8,16.2,11.9,26.7,12.6
	c4.2,0.3,7.7-0.5,10.2-1.5l-1,13.9c-0.1,0.8-0.8,1.4-1.6,1.4l-47.3-3.3c-0.8-0.1-1.4-0.8-1.4-1.6L-413.4,270.2z"/>
<path id="Stroke-3" class="st5" d="M-369.5,256.7c-0.2,3.4-3.2,6-6.6,5.7c-3.4-0.2-6-3.2-5.7-6.6c0.2-3.4,3.2-6,6.6-5.7
	C-371.8,250.4-369.3,253.3-369.5,256.7z"/>
</svg>
